<svg width="28" height="29" viewBox="0 0 28 29" fill="none" xmlns="http://www.w3.org/2000/svg">
<path d="M14 2.5543C17.7406 2.5543 18.1836 2.5707 19.6547 2.63633C21.0219 2.69649 21.7602 2.92617 22.2523 3.11758C22.9031 3.36914 23.3734 3.67539 23.8602 4.16211C24.3523 4.6543 24.6531 5.11914 24.9047 5.76992C25.0961 6.26211 25.3258 7.00586 25.3859 8.36758C25.4516 9.84418 25.468 10.2871 25.468 14.0223C25.468 17.7629 25.4516 18.2059 25.3859 19.677C25.3258 21.0442 25.0961 21.7824 24.9047 22.2746C24.6531 22.9254 24.3469 23.3957 23.8602 23.8824C23.368 24.3746 22.9031 24.6754 22.2523 24.927C21.7602 25.1184 21.0164 25.3481 19.6547 25.4082C18.1781 25.4738 17.7352 25.4903 14 25.4903C10.2594 25.4903 9.81641 25.4738 8.34531 25.4082C6.97813 25.3481 6.23984 25.1184 5.74766 24.927C5.09688 24.6754 4.62656 24.3692 4.13984 23.8824C3.64766 23.3903 3.34688 22.9254 3.09531 22.2746C2.90391 21.7824 2.67422 21.0387 2.61406 19.677C2.54844 18.2004 2.53203 17.7574 2.53203 14.0223C2.53203 10.2817 2.54844 9.83868 2.61406 8.36758C2.67422 7.00039 2.90391 6.26211 3.09531 5.76992C3.34688 5.11914 3.65313 4.64883 4.13984 4.16211C4.63203 3.66992 5.09688 3.36914 5.74766 3.11758C6.23984 2.92617 6.98359 2.69649 8.34531 2.63633C9.81641 2.5707 10.2594 2.5543 14 2.5543ZM14 0.0332031C10.1992 0.0332031 9.72344 0.0496091 8.23047 0.115239C6.74297 0.180859 5.72031 0.421489 4.83438 0.766019C3.91016 1.12695 3.12813 1.60274 2.35156 2.38477C1.56953 3.16133 1.09375 3.94336 0.732813 4.86211C0.388281 5.75352 0.147656 6.7707 0.0820313 8.2582C0.0164063 9.75668 0 10.2324 0 14.0332C0 17.834 0.0164063 18.3098 0.0820313 19.8028C0.147656 21.2903 0.388281 22.3129 0.732813 23.1989C1.09375 24.1231 1.56953 24.9051 2.35156 25.6817C3.12813 26.4582 3.91016 26.9395 4.82891 27.2949C5.72031 27.6395 6.7375 27.8801 8.225 27.9457C9.71797 28.0114 10.1938 28.0278 13.9945 28.0278C17.7953 28.0278 18.2711 28.0114 19.7641 27.9457C21.2516 27.8801 22.2742 27.6395 23.1602 27.2949C24.0789 26.9395 24.8609 26.4582 25.6375 25.6817C26.4141 24.9051 26.8953 24.1231 27.2508 23.2043C27.5953 22.3129 27.8359 21.2957 27.9016 19.8082C27.9672 18.3153 27.9836 17.8395 27.9836 14.0387C27.9836 10.2379 27.9672 9.76208 27.9016 8.26914C27.8359 6.78164 27.5953 5.75899 27.2508 4.87305C26.9063 3.94336 26.4305 3.16133 25.6484 2.38477C24.8719 1.6082 24.0898 1.12695 23.1711 0.771489C22.2797 0.426949 21.2625 0.186329 19.775 0.120699C18.2766 0.0496091 17.8008 0.0332031 14 0.0332031Z" fill="white"/>
<path d="M14 6.8418C10.0297 6.8418 6.80859 10.0629 6.80859 14.0332C6.80859 18.0035 10.0297 21.2246 14 21.2246C17.9703 21.2246 21.1914 18.0035 21.1914 14.0332C21.1914 10.0629 17.9703 6.8418 14 6.8418ZM14 18.6981C11.4242 18.6981 9.33516 16.609 9.33516 14.0332C9.33516 11.4574 11.4242 9.36838 14 9.36838C16.5758 9.36838 18.6648 11.4574 18.6648 14.0332C18.6648 16.609 16.5758 18.6981 14 18.6981Z" fill="white"/>
<path d="M23.1547 6.55782C23.1547 7.4875 22.4 8.23672 21.4758 8.23672C20.5461 8.23672 19.7969 7.48204 19.7969 6.55782C19.7969 5.62813 20.5516 4.87891 21.4758 4.87891C22.4 4.87891 23.1547 5.6336 23.1547 6.55782Z" fill="white"/>
</svg>
